# xmcd CD database file
#
# Track frame offsets:
#	150
#	11178
#	23425
#	36952
#	52935
#	65974
#	79927
#	92652
#	104308
#	119754
#	140127
#	154566
#	169542
#	183604
#	196126
#	209358
#	224321
#	240329
#	252456
#	266768
#	280341
#
# Disc length: 3936 seconds
#
# Revision: 0
# Processed by: cddbd v1.5.1PL0 Copyright (c) Steve Scherf et al.
# Submitted via: CDex 1.51
#
DISCID=350f5e15
DTITLE=Various Artist - Desperate Man Blues
DYEAR=1900
DGENRE=Blues
TTITLE0=We Live A Long Long Time To Get Old - Jimmy Murphy
TTITLE1=Cross Road Blues - Robert Johnson
TTITLE2=When I'm Gone - Joe Hill Louis
TTITLE3=Death Valley Is Just Half Way To My Home - Lonnie Johnson
TTITLE4=Whoop 'Em Up Cindy - Uncle Dave Mason
TTITLE5=Sleep Baby Sleep - Jimmie Rodgers
TTITLE6=Bugle Call Rag - Billy Banks And His Orchestra
TTITLE7=Statesboro' Blues - Blind Willie McTell
TTITLE8=It Won't Be Long - Charley Patton
TTITLE9=Death Letter - Son House
TTITLE10=Indian War Whoop - Flloyd Ming's Pep Steppers
TTITLE11=Paddlin' Blues - Gitfiddle Jim
TTITLE12=Lost Child - The Stripling Brothers
TTITLE13=Mandolin Blues - The Tennessee Messarounders
TTITLE14=John Hardy Was A Desperate Little Man - The Carter Family
TTITLE15=Hard Times Blues - Lane Hardin
TTITLE16=The Coo-Coo Bird - Clarence Ashley
TTITLE17=Blue Yodel #9 - Jimmie Rodgers
TTITLE18=Uncle Ned Don't Lose Your Head - Lonnie Johnson
TTITLE19=Sail Away Ladies - Uncle Bunt Stevens
TTITLE20=Dark Was The Night - Blind Willie Johnson
EXTD=
EXTT0=
EXTT1=
EXTT2=
EXTT3=
EXTT4=
EXTT5=
EXTT6=
EXTT7=
EXTT8=
EXTT9=
EXTT10=
EXTT11=
EXTT12=
EXTT13=
EXTT14=
EXTT15=
EXTT16=
EXTT17=
EXTT18=
EXTT19=
EXTT20=
PLAYORDER=
